<svg width="732" height="733" viewBox="0 0 732 733" fill="none" xmlns="http://www.w3.org/2000/svg">
<path fill-rule="evenodd" clip-rule="evenodd" d="M678.2 555.604C675.226 563.321 669.994 569.674 665.411 576.374C650.871 597.646 633.669 616.677 614.903 634.233C593.614 654.149 570.16 671.175 544.72 685.464C515.163 702.064 483.915 714.219 450.969 722.056C431.425 726.703 411.661 729.7 391.591 731.106C382.973 731.707 374.332 731.896 365.743 732.12C353.876 732.431 341.925 731.516 330.081 730.377C297.262 727.22 265.418 719.647 234.631 707.808C195.112 692.608 159.203 671.321 127.13 643.571C66.9511 591.499 27.4935 526.777 8.56071 449.41C7.57374 445.374 8.71118 443.983 12.2914 442.62C47.6001 429.17 83.3532 417.097 119.827 407.206C121.679 406.703 123.536 406.225 125.391 405.738C159.962 396.372 194.975 389.177 230.407 383.946C254.122 380.443 277.944 378.03 301.839 376.289C311.049 375.617 320.297 375.433 329.509 374.768C332.417 374.557 333.297 376.092 334.305 378.244C350.674 413.191 376.886 437.511 413.749 448.867C458.154 462.547 498.832 453.974 535.111 424.943C544.829 417.169 553.11 407.957 559.878 397.484C561.596 394.827 563.26 394.085 566.46 394.755C611.966 404.253 656.219 417.955 699.703 434.266C706.404 436.782 712.991 439.633 719.8 441.809C723.365 442.949 723.574 444.805 722.844 447.787C719.152 462.885 714.928 477.821 709.461 492.379C701.89 512.547 693.108 532.145 681.823 550.539C680.741 552.305 679.415 553.92 678.2 555.604Z" fill="#505050"/>
<path fill-rule="evenodd" clip-rule="evenodd" d="M455.831 232.409C504.807 231.813 546.146 272.533 545.639 323.2C545.15 372.579 505.831 412.822 455.191 412.698C404.727 412.571 365.544 371.546 365.568 322.361C365.592 273.003 405.812 231.662 455.831 232.409Z" fill="#505050"/>
<path fill-rule="evenodd" clip-rule="evenodd" d="M100.357 114.445C104.024 110.53 107.695 106.624 111.354 102.706C119.51 93.9768 129.155 87.0037 138.474 79.6477C151.143 68.622 165.144 59.4864 179.521 50.9335C222.576 25.315 268.952 8.73991 318.644 2.92721C428.379 -9.90799 525.798 19.3798 608.989 92.5041C672.09 147.971 710.677 218.013 726.467 300.61C729.359 315.744 730.887 331.071 731.89 346.442C732.232 351.638 732.048 351.731 727.259 349.782C701.121 339.155 675.586 327.089 649.232 316.972C628.15 308.879 606.612 302.304 584.46 297.919C580.517 297.138 578.881 295.45 577.885 291.558C564.341 238.573 516.516 198.896 462.319 195.449C406.405 191.889 357.714 220.739 334.044 271.65C332.412 275.163 330.512 276.29 326.68 276.407C262.073 278.37 198.782 288.696 136.693 306.651C92.7657 319.353 49.8811 335.026 7.3407 351.703C5.13463 352.566 2.89746 353.357 0.266926 354.333C-0.380139 349.726 0.313769 345.519 0.621757 341.299C6.66669 258.665 37.1969 186.308 91.5005 123.934C94.3396 120.672 97.3987 117.603 100.356 114.443L100.357 114.445Z" fill="#505050"/>
</svg>
